{
	"asset":{
		"generator":"Khronos glTF Blender I/O v3.6.27",
		"version":"2.0"
	},
	"extensionsUsed":[
		"KHR_lights_punctual"
	],
	"extensionsRequired":[
		"KHR_lights_punctual"
	],
	"extensions":{
		"KHR_lights_punctual":{
			"lights":[
				{
					"color":[
						0.854992687702179,
						0.9093259572982788,
						1
					],
					"intensity":136.60000203549862,
					"type":"directional",
					"name":"Sun.003"
				},
				{
					"color":[
						1,
						1,
						1
					],
					"intensity":271.7570653294113,
					"spot":{
						"innerConeAngle":0.3337942263919169,
						"outerConeAngle":0.39269909262657166
					},
					"type":"spot",
					"name":"Spot.019"
				},
				{
					"color":[
						1,
						1,
						1
					],
					"intensity":271.7570653294113,
					"spot":{
						"innerConeAngle":0.3337942263919169,
						"outerConeAngle":0.39269909262657166
					},
					"type":"spot",
					"name":"Spot.016"
				}
			]
		}
	},
	"scene":0,
	"scenes":[
		{
			"name":"Scene",
			"nodes":[
				0,
				1,
				2,
				3,
				4,
				5,
				6,
				7,
				8,
				9,
				10,
				11,
				12,
				13,
				14,
				15
			]
		}
	],
	"nodes":[
		{
			"mesh":0,
			"name":"Plane.187",
			"rotation":[
				0,
				0,
				-0.7071068286895752,
				0.7071068286895752
			],
			"scale":[
				124.76399230957031,
				124.76399230957031,
				261.47198486328125
			],
			"translation":[
				547.0281372070312,
				177.92459106445312,
				-67.3023681640625
			]
		},
		{
			"mesh":1,
			"name":"Cube.003",
			"scale":[
				601.8901977539062,
				2.96567702293396,
				2.96567702293396
			],
			"translation":[
				127.63789367675781,
				-4.769614219665527,
				232.49659729003906
			]
		},
		{
			"mesh":2,
			"name":"Plane.177",
			"scale":[
				483.3337097167969,
				332.3411865234375,
				314.0875244140625
			],
			"translation":[
				103.523193359375,
				-4.771056175231934,
				-51.63389587402344
			]
		},
		{
			"extensions":{
				"KHR_lights_punctual":{
					"light":0
				}
			},
			"name":"Sun.003",
			"rotation":[
				-0.6565794348716736,
				-0.2624947130680084,
				0.2624947428703308,
				0.6565794944763184
			],
			"translation":[
				-26.208770751953125,
				70.57083129882812,
				1.154886245727539
			]
		},
		{
			"mesh":3,
			"name":"Text.002",
			"rotation":[
				0.7071068286895752,
				0,
				0,
				0.7071068286895752
			],
			"scale":[
				10.401859283447266,
				10.401859283447266,
				10.401859283447266
			],
			"translation":[
				379.37957763671875,
				118.4281234741211,
				-351.8336181640625
			]
		},
		{
			"extensions":{
				"KHR_lights_punctual":{
					"light":1
				}
			},
			"name":"Spot.019",
			"rotation":[
				-0.7071068286895752,
				0,
				0,
				0.7071068286895752
			],
			"scale":[
				10.401859283447266,
				10.40185832977295,
				10.40185832977295
			],
			"translation":[
				-274.36041259765625,
				425.8022155761719,
				-254.9507598876953
			]
		},
		{
			"extensions":{
				"KHR_lights_punctual":{
					"light":2
				}
			},
			"name":"Spot.016",
			"rotation":[
				-0.7071068286895752,
				0,
				0,
				0.7071068286895752
			],
			"scale":[
				10.401859283447266,
				10.40185832977295,
				10.40185832977295
			],
			"translation":[
				-274.36041259765625,
				265.89739990234375,
				161.65196228027344
			]
		},
		{
			"mesh":4,
			"name":"Plane.121",
			"rotation":[
				0.7071068286895752,
				-0.7071068286895752,
				0,
				0
			],
			"scale":[
				-152.77377319335938,
				-13.393783569335938,
				-106.96728515625
			],
			"translation":[
				-375.8292236328125,
				140.84140014648438,
				-86.47029876708984
			]
		},
		{
			"mesh":5,
			"name":"Cube.005",
			"rotation":[
				0,
				1,
				0,
				0
			],
			"scale":[
				-4.049488067626953,
				-61.40789794921875,
				-55.73842239379883
			],
			"translation":[
				-379.3981018066406,
				40.907066345214844,
				161.81407165527344
			]
		},
		{
			"mesh":6,
			"name":"Cube.004",
			"scale":[
				34.064910888671875,
				52.91379165649414,
				5.730245113372803
			],
			"translation":[
				422.39044189453125,
				45.71802520751953,
				-359.6842346191406
			]
		},
		{
			"mesh":7,
			"name":"Cube.002",
			"rotation":[
				0,
				0.7071067094802856,
				0,
				0.7071068286895752
			],
			"scale":[
				10.13326644897461,
				8.259230613708496,
				293.484130859375
			],
			"translation":[
				-89.64896392822266,
				301.0579528808594,
				237.91452026367188
			]
		},
		{
			"mesh":8,
			"name":"Cube.001",
			"rotation":[
				0,
				0.7071067094802856,
				0,
				0.7071068286895752
			],
			"scale":[
				10.13326644897461,
				8.259230613708496,
				293.484130859375
			],
			"translation":[
				-89.64896392822266,
				301.0579528808594,
				-358.4679260253906
			]
		},
		{
			"mesh":9,
			"name":"Cube",
			"scale":[
				10.13326644897461,
				8.259230613708496,
				293.484130859375
			],
			"translation":[
				-373.2942199707031,
				301.0579528808594,
				-61.084842681884766
			]
		},
		{
			"mesh":10,
			"name":"Text",
			"rotation":[
				0.4999999701976776,
				0.5000000596046448,
				-0.5000000596046448,
				0.5
			],
			"scale":[
				10.401859283447266,
				10.401859283447266,
				10.401859283447266
			],
			"translation":[
				-362.8897705078125,
				104.90868377685547,
				167.8625946044922
			]
		},
		{
			"mesh":11,
			"name":"Plane",
			"rotation":[
				0,
				0,
				-1,
				0
			],
			"scale":[
				-42.31756591796875,
				-10.401859283447266,
				-23.396392822265625
			],
			"translation":[
				263.2215881347656,
				-6.657607078552246,
				71.41405487060547
			]
		},
		{
			"mesh":12,
			"name":"Cube.006",
			"scale":[
				338.213623046875,
				255.8428192138672,
				24.85725212097168
			],
			"translation":[
				-116.48876953125,
				223.63319396972656,
				71.2562026977539
			]
		}
	],
	"animations":[
		{
			"channels":[
				{
					"sampler":0,
					"target":{
						"node":3,
						"path":"translation"
					}
				},
				{
					"sampler":1,
					"target":{
						"node":3,
						"path":"rotation"
					}
				},
				{
					"sampler":2,
					"target":{
						"node":3,
						"path":"scale"
					}
				}
			],
			"name":"Sun.003Action",
			"samplers":[
				{
					"input":44,
					"interpolation":"LINEAR",
					"output":45
				},
				{
					"input":44,
					"interpolation":"LINEAR",
					"output":46
				},
				{
					"input":47,
					"interpolation":"STEP",
					"output":48
				}
			]
		}
	],
	"materials":[
		{
			"doubleSided":true,
			"name":"Material.068",
			"pbrMetallicRoughness":{
				"baseColorFactor":[
					1,
					1,
					1,
					1
				],
				"metallicFactor":0,
				"roughnessFactor":0.5
			}
		},
		{
			"doubleSided":true,
			"name":"Material.063",
			"pbrMetallicRoughness":{
				"baseColorFactor":[
					0.9163452982902527,
					0.9368605017662048,
					1,
					1
				],
				"metallicFactor":1,
				"roughnessFactor":0.5
			}
		},
		{
			"doubleSided":true,
			"name":"Material.060",
			"pbrMetallicRoughness":{
				"baseColorFactor":[
					0.01718965917825699,
					0,
					0.004406946245580912,
					1
				],
				"metallicFactor":1,
				"roughnessFactor":0.5
			}
		},
		{
			"doubleSided":true,
			"name":"Material.055",
			"pbrMetallicRoughness":{
				"baseColorFactor":[
					0,
					0.8000000715255737,
					0.09444795548915863,
					1
				],
				"metallicFactor":0,
				"roughnessFactor":0.5
			}
		},
		{
			"doubleSided":true,
			"name":"Material.065",
			"pbrMetallicRoughness":{
				"baseColorFactor":[
					0.0071935756132006645,
					0.0071935756132006645,
					0.0071935756132006645,
					1
				],
				"metallicFactor":0,
				"roughnessFactor":0.5
			}
		},
		{
			"doubleSided":true,
			"name":"Material.057",
			"pbrMetallicRoughness":{
				"baseColorFactor":[
					0.015995007008314133,
					0,
					0.0008456051582470536,
					1
				],
				"metallicFactor":0,
				"roughnessFactor":0.5
			}
		},
		{
			"doubleSided":true,
			"name":"Material.061",
			"pbrMetallicRoughness":{
				"baseColorFactor":[
					0.8000000715255737,
					0,
					0.019752338528633118,
					1
				],
				"metallicFactor":0,
				"roughnessFactor":0.5
			}
		},
		{
			"doubleSided":true,
			"name":"Material.064",
			"pbrMetallicRoughness":{
				"baseColorFactor":[
					0,
					0.017072169110178947,
					0.018848657608032227,
					1
				],
				"metallicFactor":0,
				"roughnessFactor":0.5
			}
		}
	],
	"meshes":[
		{
			"name":"Plane.023",
			"primitives":[
				{
					"attributes":{
						"POSITION":0,
						"NORMAL":1
					},
					"indices":2,
					"material":0
				}
			]
		},
		{
			"name":"Cube.003",
			"primitives":[
				{
					"attributes":{
						"POSITION":3,
						"NORMAL":4
					},
					"indices":5,
					"material":1
				}
			]
		},
		{
			"name":"Plane.178",
			"primitives":[
				{
					"attributes":{
						"POSITION":6,
						"NORMAL":7,
						"TEXCOORD_0":8
					},
					"indices":2,
					"material":2
				}
			]
		},
		{
			"name":"Text.004",
			"primitives":[
				{
					"attributes":{
						"POSITION":9,
						"NORMAL":10,
						"TEXCOORD_0":11
					},
					"indices":12,
					"material":3
				}
			]
		},
		{
			"name":"Plane",
			"primitives":[
				{
					"attributes":{
						"POSITION":13,
						"NORMAL":14
					},
					"indices":15,
					"material":4
				}
			]
		},
		{
			"name":"Cube.005",
			"primitives":[
				{
					"attributes":{
						"POSITION":16,
						"NORMAL":17,
						"TEXCOORD_0":18
					},
					"indices":19,
					"material":5
				}
			]
		},
		{
			"name":"Cube.004",
			"primitives":[
				{
					"attributes":{
						"POSITION":20,
						"NORMAL":21,
						"TEXCOORD_0":22
					},
					"indices":23,
					"material":5
				}
			]
		},
		{
			"name":"Cube.002",
			"primitives":[
				{
					"attributes":{
						"POSITION":24,
						"NORMAL":25
					},
					"indices":26,
					"material":6
				}
			]
		},
		{
			"name":"Cube.001",
			"primitives":[
				{
					"attributes":{
						"POSITION":27,
						"NORMAL":28
					},
					"indices":29,
					"material":6
				}
			]
		},
		{
			"name":"Cube",
			"primitives":[
				{
					"attributes":{
						"POSITION":30,
						"NORMAL":31
					},
					"indices":32,
					"material":6
				}
			]
		},
		{
			"name":"Text",
			"primitives":[
				{
					"attributes":{
						"POSITION":33,
						"NORMAL":34,
						"TEXCOORD_0":35
					},
					"indices":12,
					"material":3
				}
			]
		},
		{
			"name":"Plane.109",
			"primitives":[
				{
					"attributes":{
						"POSITION":36,
						"NORMAL":37,
						"TEXCOORD_0":38
					},
					"indices":39,
					"material":7
				}
			]
		},
		{
			"name":"Cube.006",
			"primitives":[
				{
					"attributes":{
						"POSITION":40,
						"NORMAL":41,
						"TEXCOORD_0":42
					},
					"indices":43,
					"material":4
				}
			]
		}
	],
	"accessors":[
		{
			"bufferView":0,
			"componentType":5126,
			"count":4,
			"max":[
				1,
				0,
				1
			],
			"min":[
				-1,
				0,
				-1
			],
			"type":"VEC3"
		},
		{
			"bufferView":1,
			"componentType":5126,
			"count":4,
			"type":"VEC3"
		},
		{
			"bufferView":2,
			"componentType":5123,
			"count":6,
			"type":"SCALAR"
		},
		{
			"bufferView":3,
			"componentType":5126,
			"count":72,
			"max":[
				0.7335522174835205,
				1,
				1
			],
			"min":[
				-0.8563833832740784,
				-1,
				-198.76939392089844
			],
			"type":"VEC3"
		},
		{
			"bufferView":4,
			"componentType":5126,
			"count":72,
			"type":"VEC3"
		},
		{
			"bufferView":5,
			"componentType":5123,
			"count":108,
			"type":"SCALAR"
		},
		{
			"bufferView":6,
			"componentType":5126,
			"count":4,
			"max":[
				1,
				0,
				1
			],
			"min":[
				-1,
				0,
				-1
			],
			"type":"VEC3"
		},
		{
			"bufferView":7,
			"componentType":5126,
			"count":4,
			"type":"VEC3"
		},
		{
			"bufferView":8,
			"componentType":5126,
			"count":4,
			"type":"VEC2"
		},
		{
			"bufferView":9,
			"componentType":5126,
			"count":134,
			"max":[
				1.5509999990463257,
				0,
				0.009000000543892384
			],
			"min":[
				0.07500000298023224,
				0,
				-0.6820000410079956
			],
			"type":"VEC3"
		},
		{
			"bufferView":10,
			"componentType":5126,
			"count":134,
			"type":"VEC3"
		},
		{
			"bufferView":11,
			"componentType":5126,
			"count":134,
			"type":"VEC2"
		},
		{
			"bufferView":12,
			"componentType":5123,
			"count":372,
			"type":"SCALAR"
		},
		{
			"bufferView":13,
			"componentType":5126,
			"count":12,
			"max":[
				1.0000066757202148,
				87.64024353027344,
				3.0014171600341797
			],
			"min":[
				-1,
				0,
				-2.502300500869751
			],
			"type":"VEC3"
		},
		{
			"bufferView":14,
			"componentType":5126,
			"count":12,
			"type":"VEC3"
		},
		{
			"bufferView":15,
			"componentType":5123,
			"count":18,
			"type":"SCALAR"
		},
		{
			"bufferView":16,
			"componentType":5126,
			"count":24,
			"max":[
				1,
				1,
				1
			],
			"min":[
				-1,
				-1,
				-1
			],
			"type":"VEC3"
		},
		{
			"bufferView":17,
			"componentType":5126,
			"count":24,
			"type":"VEC3"
		},
		{
			"bufferView":18,
			"componentType":5126,
			"count":24,
			"type":"VEC2"
		},
		{
			"bufferView":19,
			"componentType":5123,
			"count":36,
			"type":"SCALAR"
		},
		{
			"bufferView":20,
			"componentType":5126,
			"count":844,
			"max":[
				1,
				1,
				1.8823115825653076
			],
			"min":[
				-3.024995803833008,
				-1,
				-1.0000007152557373
			],
			"type":"VEC3"
		},
		{
			"bufferView":21,
			"componentType":5126,
			"count":844,
			"type":"VEC3"
		},
		{
			"bufferView":22,
			"componentType":5126,
			"count":844,
			"type":"VEC2"
		},
		{
			"bufferView":23,
			"componentType":5123,
			"count":1272,
			"type":"SCALAR"
		},
		{
			"bufferView":24,
			"componentType":5126,
			"count":68,
			"max":[
				59.38758850097656,
				20.880422592163086,
				2.2499005794525146
			],
			"min":[
				-1,
				-1,
				-1
			],
			"type":"VEC3"
		},
		{
			"bufferView":25,
			"componentType":5126,
			"count":68,
			"type":"VEC3"
		},
		{
			"bufferView":26,
			"componentType":5123,
			"count":168,
			"type":"SCALAR"
		},
		{
			"bufferView":27,
			"componentType":5126,
			"count":42,
			"max":[
				1.0000027418136597,
				20.880422592163086,
				2.2441329956054688
			],
			"min":[
				-1,
				-1,
				-1
			],
			"type":"VEC3"
		},
		{
			"bufferView":28,
			"componentType":5126,
			"count":42,
			"type":"VEC3"
		},
		{
			"bufferView":29,
			"componentType":5123,
			"count":96,
			"type":"SCALAR"
		},
		{
			"bufferView":30,
			"componentType":5126,
			"count":120,
			"max":[
				1,
				20.880422592163086,
				1
			],
			"min":[
				-1,
				-1,
				-1
			],
			"type":"VEC3"
		},
		{
			"bufferView":31,
			"componentType":5126,
			"count":120,
			"type":"VEC3"
		},
		{
			"bufferView":32,
			"componentType":5123,
			"count":360,
			"type":"SCALAR"
		},
		{
			"bufferView":33,
			"componentType":5126,
			"count":134,
			"max":[
				1.5509999990463257,
				0,
				0.009000000543892384
			],
			"min":[
				0.07500000298023224,
				0,
				-0.6820000410079956
			],
			"type":"VEC3"
		},
		{
			"bufferView":34,
			"componentType":5126,
			"count":134,
			"type":"VEC3"
		},
		{
			"bufferView":35,
			"componentType":5126,
			"count":134,
			"type":"VEC2"
		},
		{
			"bufferView":36,
			"componentType":5126,
			"count":200,
			"max":[
				6.817355155944824,
				18.02758026123047,
				1
			],
			"min":[
				-15.011245727539062,
				-0.9080319404602051,
				-1
			],
			"type":"VEC3"
		},
		{
			"bufferView":37,
			"componentType":5126,
			"count":200,
			"type":"VEC3"
		},
		{
			"bufferView":38,
			"componentType":5126,
			"count":200,
			"type":"VEC2"
		},
		{
			"bufferView":39,
			"componentType":5123,
			"count":306,
			"type":"SCALAR"
		},
		{
			"bufferView":40,
			"componentType":5126,
			"count":24,
			"max":[
				1,
				1,
				1
			],
			"min":[
				-1,
				-1,
				-1
			],
			"type":"VEC3"
		},
		{
			"bufferView":41,
			"componentType":5126,
			"count":24,
			"type":"VEC3"
		},
		{
			"bufferView":42,
			"componentType":5126,
			"count":24,
			"type":"VEC2"
		},
		{
			"bufferView":43,
			"componentType":5123,
			"count":36,
			"type":"SCALAR"
		},
		{
			"bufferView":44,
			"componentType":5126,
			"count":41,
			"max":[
				0.6666666666666666
			],
			"min":[
				0
			],
			"type":"SCALAR"
		},
		{
			"bufferView":45,
			"componentType":5126,
			"count":41,
			"type":"VEC3"
		},
		{
			"bufferView":46,
			"componentType":5126,
			"count":41,
			"type":"VEC4"
		},
		{
			"bufferView":47,
			"componentType":5126,
			"count":2,
			"max":[
				0.6666666666666666
			],
			"min":[
				0
			],
			"type":"SCALAR"
		},
		{
			"bufferView":48,
			"componentType":5126,
			"count":2,
			"type":"VEC3"
		}
	],
	"bufferViews":[
		{
			"buffer":0,
			"byteLength":48,
			"byteOffset":0,
			"target":34962
		},
		{
			"buffer":0,
			"byteLength":48,
			"byteOffset":48,
			"target":34962
		},
		{
			"buffer":0,
			"byteLength":12,
			"byteOffset":96,
			"target":34963
		},
		{
			"buffer":0,
			"byteLength":864,
			"byteOffset":108,
			"target":34962
		},
		{
			"buffer":0,
			"byteLength":864,
			"byteOffset":972,
			"target":34962
		},
		{
			"buffer":0,
			"byteLength":216,
			"byteOffset":1836,
			"target":34963
		},
		{
			"buffer":0,
			"byteLength":48,
			"byteOffset":2052,
			"target":34962
		},
		{
			"buffer":0,
			"byteLength":48,
			"byteOffset":2100,
			"target":34962
		},
		{
			"buffer":0,
			"byteLength":32,
			"byteOffset":2148,
			"target":34962
		},
		{
			"buffer":0,
			"byteLength":1608,
			"byteOffset":2180,
			"target":34962
		},
		{
			"buffer":0,
			"byteLength":1608,
			"byteOffset":3788,
			"target":34962
		},
		{
			"buffer":0,
			"byteLength":1072,
			"byteOffset":5396,
			"target":34962
		},
		{
			"buffer":0,
			"byteLength":744,
			"byteOffset":6468,
			"target":34963
		},
		{
			"buffer":0,
			"byteLength":144,
			"byteOffset":7212,
			"target":34962
		},
		{
			"buffer":0,
			"byteLength":144,
			"byteOffset":7356,
			"target":34962
		},
		{
			"buffer":0,
			"byteLength":36,
			"byteOffset":7500,
			"target":34963
		},
		{
			"buffer":0,
			"byteLength":288,
			"byteOffset":7536,
			"target":34962
		},
		{
			"buffer":0,
			"byteLength":288,
			"byteOffset":7824,
			"target":34962
		},
		{
			"buffer":0,
			"byteLength":192,
			"byteOffset":8112,
			"target":34962
		},
		{
			"buffer":0,
			"byteLength":72,
			"byteOffset":8304,
			"target":34963
		},
		{
			"buffer":0,
			"byteLength":10128,
			"byteOffset":8376,
			"target":34962
		},
		{
			"buffer":0,
			"byteLength":10128,
			"byteOffset":18504,
			"target":34962
		},
		{
			"buffer":0,
			"byteLength":6752,
			"byteOffset":28632,
			"target":34962
		},
		{
			"buffer":0,
			"byteLength":2544,
			"byteOffset":35384,
			"target":34963
		},
		{
			"buffer":0,
			"byteLength":816,
			"byteOffset":37928,
			"target":34962
		},
		{
			"buffer":0,
			"byteLength":816,
			"byteOffset":38744,
			"target":34962
		},
		{
			"buffer":0,
			"byteLength":336,
			"byteOffset":39560,
			"target":34963
		},
		{
			"buffer":0,
			"byteLength":504,
			"byteOffset":39896,
			"target":34962
		},
		{
			"buffer":0,
			"byteLength":504,
			"byteOffset":40400,
			"target":34962
		},
		{
			"buffer":0,
			"byteLength":192,
			"byteOffset":40904,
			"target":34963
		},
		{
			"buffer":0,
			"byteLength":1440,
			"byteOffset":41096,
			"target":34962
		},
		{
			"buffer":0,
			"byteLength":1440,
			"byteOffset":42536,
			"target":34962
		},
		{
			"buffer":0,
			"byteLength":720,
			"byteOffset":43976,
			"target":34963
		},
		{
			"buffer":0,
			"byteLength":1608,
			"byteOffset":44696,
			"target":34962
		},
		{
			"buffer":0,
			"byteLength":1608,
			"byteOffset":46304,
			"target":34962
		},
		{
			"buffer":0,
			"byteLength":1072,
			"byteOffset":47912,
			"target":34962
		},
		{
			"buffer":0,
			"byteLength":2400,
			"byteOffset":48984,
			"target":34962
		},
		{
			"buffer":0,
			"byteLength":2400,
			"byteOffset":51384,
			"target":34962
		},
		{
			"buffer":0,
			"byteLength":1600,
			"byteOffset":53784,
			"target":34962
		},
		{
			"buffer":0,
			"byteLength":612,
			"byteOffset":55384,
			"target":34963
		},
		{
			"buffer":0,
			"byteLength":288,
			"byteOffset":55996,
			"target":34962
		},
		{
			"buffer":0,
			"byteLength":288,
			"byteOffset":56284,
			"target":34962
		},
		{
			"buffer":0,
			"byteLength":192,
			"byteOffset":56572,
			"target":34962
		},
		{
			"buffer":0,
			"byteLength":72,
			"byteOffset":56764,
			"target":34963
		},
		{
			"buffer":0,
			"byteLength":164,
			"byteOffset":56836
		},
		{
			"buffer":0,
			"byteLength":492,
			"byteOffset":57000
		},
		{
			"buffer":0,
			"byteLength":656,
			"byteOffset":57492
		},
		{
			"buffer":0,
			"byteLength":8,
			"byteOffset":58148
		},
		{
			"buffer":0,
			"byteLength":24,
			"byteOffset":58156
		}
	],
	"buffers":[
		{
			"byteLength":58180,
			"uri":"data:application/octet-stream;base64,"
		}
	]
}
